<?xml version="1.0" encoding="UTF-8"?>
<!DOCTYPE svg PUBLIC "-//W3C//DTD SVG 1.1//EN" "http://www.w3.org/Graphics/SVG/1.1/DTD/svg11.dtd">
<!-- Creator: CorelDRAW 2021 (64-Bit) -->
<svg xmlns="http://www.w3.org/2000/svg" xml:space="preserve" width="57.4681mm" height="38.7607mm" version="1.1" style="shape-rendering:geometricPrecision; text-rendering:geometricPrecision; image-rendering:optimizeQuality; fill-rule:evenodd; clip-rule:evenodd"
viewBox="0 0 5732.6 3866.48"
 xmlns:xlink="http://www.w3.org/1999/xlink"
 xmlns:xodm="http://www.corel.com/coreldraw/odm/2003">
 <defs>
  <style type="text/css">
   <![CDATA[
    .fil0 {fill:url(#id0)}
   ]]>
  </style>
  <linearGradient id="id0" gradientUnits="userSpaceOnUse" x1="-0" y1="1933.25" x2="5732.6" y2="1933.25">
   <stop offset="0" style="stop-opacity:1; stop-color:#BE9C3C"/>
   <stop offset="1" style="stop-opacity:1; stop-color:#FFCC29"/>
  </linearGradient>
 </defs>
 <g id="Layer_x0020_1">
  <metadata id="CorelCorpID_0Corel-Layer"/>
  <path class="fil0" d="M-0 1003.53l1016.75 -1003.53 3692.41 0 1023.43 996.83 -2869.65 2869.65 -2862.94 -2862.95zm2452.14 260.27l878.17 -14.29 -455.81 436.68 -422.36 -422.38zm1792.44 -906.4l-2729.51 -0.01 670.43 670.45 1365.02 0 694.07 -670.44zm989.05 647.29l-618.88 -566.82 -1538.53 1440.19 642.01 642.03 1515.39 -1515.39zm-1713.92 1719.12l-2397.87 -2298.09 -222.82 222.83 2377.91 2318.04 242.78 -242.78zm-445.65 425.69l-2397.87 -2298.09 -222.82 222.83 2377.91 2318.04 242.78 -242.78z"/>
 </g>
</svg>
