<?xml version="1.0" encoding="iso-8859-1"?>
<!-- Generator: Adobe Illustrator 16.0.0, SVG Export Plug-In . SVG Version: 6.00 Build 0)  -->
<svg version="1.2" baseProfile="tiny" id="Layer_1" xmlns="http://www.w3.org/2000/svg" xmlns:xlink="http://www.w3.org/1999/xlink"
	 x="0px" y="0px" width="800px" height="800px" viewBox="0 0 800 800" xml:space="preserve">
<g>
	<polygon fill="#D5A10F" points="359.646,551.952 378.579,567.701 397.02,545.39 378.089,529.678 	"/>
	<polygon fill="#D5A10F" points="411.965,411.954 434.219,422.438 446.559,396.33 424.277,385.844 	"/>
	<polygon fill="#D5A10F" points="497.264,432.266 484.938,458.33 507.202,468.873 519.505,442.741 	"/>
	<polygon fill="#D5A10F" points="382.312,490.874 363.883,513.1 382.813,528.787 401.271,506.596 	"/>
	<path fill="#D5A10F" d="M306.557,311.226c0,0,4.907-3.991,3.274-5.957c-0.857-1.073-5.435,2.599-5.435,2.599
		s-13.853,9.84-19.444,22.877c-3.406,7.921-3.21,16.576-1.269,20.749c1.952,4.176,6.603,8.18,12.608,3.383
		c4.249-3.383,6.094-8.08,7.017-12.071c0.565-2.381,0.76-3.921,0.747-5.044c-0.014-1.499-0.476-2.733-1.89-2.367
		c-3.995,1.257-1.6,6.691-4.507,9.313c-2.184,1.331-7.801,0.598-8.897-4.931c-1.135-5.591,3.136-12.805,7.054-17.531
		C299.711,317.501,306.557,311.226,306.557,311.226"/>
	<path fill="#D5A10F" d="M272.037,413.225c14.014-6.592,19.53,10.216,19.53,10.216c-1.539,18.058-22.606,22.449-35.754,10.914
		C258.535,425.736,263.493,418.047,272.037,413.225 M362.941,445.205c0.976-6.432,1.991-7.617,3.992-9.273
		c5.346-4.545,18.373-16.762,24.609-22.196c3.895-3.415,7.19-6.724,9.375-11.104c2.806-5.25,1.304-12.271,1.304-12.271
		l-3.773-26.084c-0.95,3.695-5.477,8.936-11.84,15.333c-6.688,6.747-24.447,21.933-26.046,23.57
		c-1.615,1.646-7.364,5.846-9.892,25.78c-6.416,54.268-17.138,79.841-36.301,88.521c-5.104,2.344-10.754,3.457-17.113,3.639
		c-35.216-0.342-44.469-43.224-44.275-66.646c0.026-1.357,0.063-2.763,0.124-4.116c8.177,11.035,20.264,21.926,35.118,19.677
		c23.805-3.611,16.394-43.653,12.952-52.927c-3.394-9.338-12.608-37.207-32.518-35.815c-14.148,0.954-20.73,17.494-23.694,31.445
		c-2.723-11.071-4.175-24.001-3.297-34.132c2.076-24.206,10.376-54.491,45.727-84.273c25.134-21.167,53.623-36.329,69.531-48.839
		c10.081-7.898,16.332-16.798,19.871-25.122c-1.023,8.093-3,16.882-6.896,27.05c-14.637,38.441-59.02,101.865-59.655,191.583
		c0,27.574,2.601,51.415,6.972,71.859c2.44-1.721,4.686-3.831,6.823-6.37c-3.053-14.61-4.834-30.771-4.834-47.973
		c0-89.523,44.068-152.901,58.446-191.267c7.594-20.166,7.763-34.935,7.763-49.451c0-17.856-4.016-36.472-7.714-43.723
		c-4.166-7.214-9.413-10.289-17.309-10.07c-9.571,0.267-17.055,8.25-16.786,17.819c0.291,9.523,8.254,17.041,17.797,16.761
		c5.188-0.146,9.754-2.587,12.817-6.273l0.368-0.391c2.047,13.731-4.591,24.729-19.91,37.508
		c-15.724,13.185-52.514,30.468-78.661,51.111c-36.778,29.016-45.483,60.668-47.717,86.313c-0.977,11.392,0.722,26.429,3.833,38.865
		c3.92,15.613,9.581,27.591,9.581,27.591s0.294,0.499,0.723,1.353c-0.904,16.981,0.769,46.581,10.352,68.872
		c12.842,28.856,35.999,52.503,69.114,45.546C355.396,539.24,359.121,484.891,362.941,445.205"/>
	<path fill="#D5A10F" d="M378.639,431.876l-8.973,8.105c9.438,22.01,23.695,41.101,40.1,55.091
		c1.708-11.514,3.562-19.629,5.261-25.402C398.377,457.722,386.341,444.815,378.639,431.876"/>
	<path fill="#D5A10F" d="M507.666,294.769c3.259,10.584,20.151,69.69,6.518,94.543c-4.151,10.024-11.988,22.397-26.439,37.313
		c-23.389,24.025-39.088,38.137-46.265,52.784c-5.736,12.987-8.923,48.949-9.631,55.345c-1.368,13.184-2.918,26.831-5.076,39.113
		c-4.199,24.389-17.325,32.735-33.973,32.735c-21.949,0-47.06-18.039-63.744-57.297c3.038-1.307,5.785-3.017,8.338-4.942
		c12.303,24.838,29.235,38.597,45.786,35.006l-0.014-0.071c0.931-0.161,1.88-0.427,2.822-0.757
		c17.321-6.446,21.58-28.782,23.118-42.774c0.697-6.211,2.785-20.101,4.678-31.725c2.453-19.713,5.354-30.904,7.676-37.496
		c1.662-5.286,4.907-12.123,6.935-15.153c7.86-13.755,22.69-28.574,45.297-50.143c3.518-3.38,6.655-6.556,9.489-9.582
		c11.959-13.611,28.049-33.862,24.974-55.21c-13.33,17.321-42.784,29.052-53.441,49.899c-2.785-7.849-6.715-19.846-7.445-22.97
		c-0.404-1.844-3.763-11.536,5.905-22.532c11.363-12.965,17.2-26.246,16.54-44.69c-0.681-7.605-3.575-15.065-8.323-22.951
		c-14.073-23.4-38.232-46.202-52.525-61.462c3.93,20.984,1.438,59.315-18.994,97.071c-14.003,25.766-25.416,54.513-23.608,83.091
		c-3.673,3.367-6.701,6.177-8.094,7.541c-1.219-7.958-1.891-16.111-1.953-24.511c0-36.412,15.81-66.391,27.977-95.027
		c14.978-35.094,20.572-57.849,15.53-76.841c-2.002-7.522-4.224-10.732-8.657-23.206c-5.81-16.394-3.293-33.582,10.387-52.196
		c-10.177-17.7-13.889-33.448-13.939-46.632c-0.073-21.482,7.324-35.521,16.163-41.733c6.265-4.395,8.529-4.175,9.459-3.979
		c0.881,0.146,1.38,1.647,0.123,2.296c-2.121,1.096-4.417,2.77-6.338,4.357c-8.542,7.116-12.849,23.227-6.135,44.092
		c3.405,10.667,10.058,23.057,21.471,37.36c35.961,45.095,94.466,114.868,126.17,185.388c19.76,40.135,23.276,78.233,23.276,78.233
		c8.449,91.612-37.353,135.287-95.872,134.637c-0.817-0.01-1.661-0.048-2.464-0.081l-0.05-0.017
		c-11.377-0.475-23.022-3.223-33.814-7.763c1.759-13.184,3.59-22.802,5.504-28.792c0.466,0.119,0.918,0.232,1.394,0.352l0.025,0.012
		c71.2,19.372,118.758-49.571,106.246-117.38c-3.391-15.512-9.569-31.788-17.551-48.291
		c-31.667-65.487-92.054-134.188-124.123-177.534c-1.891-2.565-3.586-5.028-5.222-7.496c-8.715,10.683-16.687,27.491,6.821,53.515
		c18.167,20.129,58.412,54.979,68.52,94.199l0.037-0.026c0.135,0.54,0.281,1.1,0.393,1.686v0.073
		c2.267,9.827,3.769,21.583-1.821,36.948c9.972-7.296,20.752-16.256,26.745-26.034c0.035-0.076,0.086-0.146,0.123-0.258
		c0.278-0.391,0.378-0.523,0.685-0.523C507.492,294.284,507.543,294.416,507.666,294.769"/>
	<polygon fill="#00549C" points="230.608,720.87 207.377,720.87 207.377,663.573 188.348,663.573 188.348,737.362 230.608,737.362 	
		"/>
	<path fill="#00549C" d="M266.41,737.975v-74.401h-18.957v69.093c0,11.252-4.075,15.341-13.145,12.815
		c-0.54-0.111-0.99-0.332-1.528-0.528l-4.454,15.993c1,0.512,1.99,0.891,3.087,1.33C252.543,770.162,266.41,758.468,266.41,737.975"
		/>
	<polygon fill="#00549C" points="479.845,721.689 448.622,721.689 448.622,708.885 473.316,708.885 473.316,693.115 
		448.622,693.115 448.622,679.732 477.307,679.732 477.307,663.572 429.76,663.572 429.76,737.362 479.845,737.362 	"/>
	<polygon fill="#00549C" points="545.113,721.689 513.9,721.689 513.9,708.885 538.596,708.885 538.596,693.115 513.9,693.115 
		513.9,679.732 542.587,679.732 542.587,663.572 495.041,663.572 495.041,737.362 545.113,737.362 	"/>
	<path fill="#00549C" d="M133.13,707.018l6.989-23.4l6.97,23.4H133.13z M129.676,663.573l-25.115,73.788h18.957l4.271-13.546h24.27
		l4.101,13.546h20.129l-25.667-73.788H129.676z"/>
	<path fill="#00549C" d="M306.191,707.018l6.971-23.402l6.982,23.402H306.191z M329.213,737.362h20.143l-25.671-73.789h-20.947
		l-25.109,73.789h18.947l4.27-13.547h24.281L329.213,737.362z"/>
	<path fill="#00549C" d="M652.288,707.018l6.986-23.4l6.978,23.4H652.288z M669.78,663.573h-20.936l-25.169,73.788h18.996
		l4.27-13.546h24.267l4.104,13.546h20.128L669.78,663.573z"/>
	<path fill="#00549C" d="M592.244,691.346c-1.075,1.329-2.622,1.924-6.249,2.243h-1.637h-5.616v-13.856h5.616
		c0.466,0,0.903,0.121,1.37,0.121c2.88,0.098,4.075,0.417,5.331,1.236C594.249,682.934,594.982,687.96,592.244,691.346
		 M608.113,710.619c-2.797-6.57-3.799-7.911-6.434-9.143c0.466-0.099,0.905-0.306,1.282-0.516
		c8.252-3.794,12.242-13.305,9.069-23.863c-2.553-8.702-9.253-13.524-21.96-13.524h-29.917v73.788h18.957v-27.56h4.346
		c3.075,0,4.893,1.305,6.528,5.211l1.003,2.354l0.536,1.345l7.163,18.649h19.646l-9.219-24.191
		C608.762,712.242,608.478,711.425,608.113,710.619"/>
	<polygon fill="#00549C" points="413.707,721.054 386.243,721.054 413.161,682.395 413.161,663.573 362.282,663.573 
		362.282,679.732 388.415,679.732 361.451,718.467 361.451,737.361 413.707,737.361 	"/>
</g>
</svg>
